<svg width="318" height="52" viewBox="0 0 318 52" fill="none" xmlns="http://www.w3.org/2000/svg">
<g clip-path="url(#clip0_108_1247)">
<path opacity="0.5" d="M51.9773 23.8514C47.0166 17.4602 39.4666 15.8556 33.1159 18.2217C27.392 20.3702 22.1588 26.2991 22.6767 34.7845C23.0855 41.6652 27.8826 46.7238 37.1498 49.4979C34.4514 50.8849 31.6713 51.6464 28.8094 51.864C20.4962 52.5439 13.2187 50.069 7.33134 44.0857C-1.06362 35.6548 -2.42644 22.002 4.14234 12.0753C4.55119 11.4497 5.28711 10.9058 5.99578 10.661C13.1097 8.21334 20.4416 6.98949 27.9917 7.15267C28.7276 7.17986 29.4635 7.15267 30.2539 6.93509C27.9644 5.11292 25.266 4.29702 22.5131 3.80748C19.7602 3.31794 16.9801 3.20915 14.418 2.93718C29.2182 -5.24901 50.1783 4.29702 51.9773 23.8514Z" fill="url(#paint0_linear_108_1247)"/>
<path d="M38.9494 21.0774C45.8725 21.1046 51.351 26.6527 51.2692 33.5335C51.1875 40.3055 45.5727 45.7448 38.7313 45.6904C31.9717 45.636 26.4932 40.1423 26.4659 33.3975C26.4114 26.544 31.999 21.0502 38.9494 21.0774ZM43.0923 27.2239C40.2032 31.3306 37.3685 35.3557 34.5338 39.3808C37.9681 41.8829 42.629 41.0398 45.0548 37.613C47.4533 34.2678 46.6357 29.726 43.0923 27.2239Z" fill="url(#paint1_linear_108_1247)"/>
<path d="M80.0247 18.2762V22.6005H73.3196V42.5084H68.4134V22.6005H61.7084V18.2762H80.0247Z" fill="url(#paint2_linear_108_1247)"/>
<path d="M77.3263 34.295C77.3263 29.1004 81.4965 25.6465 86.1573 25.6465C90.8182 25.6465 94.9884 29.1004 94.9884 34.295C94.9884 39.4624 90.8182 42.9163 86.1573 42.9163C81.4965 42.9163 77.3263 39.4624 77.3263 34.295ZM90.3275 34.295C90.3275 31.7385 88.4469 29.9435 86.1573 29.9435C83.8678 29.9435 81.9871 31.7385 81.9871 34.295C81.9871 36.8243 83.8678 38.6193 86.1573 38.6193C88.4469 38.6193 90.3275 36.8243 90.3275 34.295Z" fill="url(#paint3_linear_108_1247)"/>
<path d="M113.005 42.4812H107.254L101.475 35.3829V42.4812H96.8691V17.1339H101.475V31.0858L105.646 26.0544H111.56L105.155 33.2887L113.005 42.4812Z" fill="url(#paint4_linear_108_1247)"/>
<path d="M124.453 26.0817H129.059V42.5084H124.453V39.8432C123.744 41.9917 121.127 42.9436 119.519 42.9436C115.213 42.9436 112.978 40.0607 113.005 35.1381V26.0817H117.611V34.8662C117.611 37.4227 119.165 38.6193 120.746 38.6193C122.408 38.6193 124.453 37.6946 124.453 34.7574V26.0817Z" fill="url(#paint5_linear_108_1247)"/>
<path d="M141.729 26H146.689L136.55 50.477H131.617L135.514 40.8766L129 26H134.097L137.967 35.4916L141.729 26Z" fill="url(#paint6_linear_108_1247)"/>
<path d="M160.186 26.0816H164.792V42.5084H160.186V40.1423C159.095 41.8285 156.969 42.9163 154.762 42.9163C150.21 42.9163 146.83 39.408 146.83 34.295C146.83 29.2092 150.155 25.6465 154.871 25.6465C156.997 25.6465 159.095 26.5712 160.186 28.2573V26.0816ZM160.022 34.295C160.022 31.7929 158.005 29.9435 155.716 29.9435C153.317 29.9435 151.518 31.9017 151.518 34.295C151.518 36.5795 153.317 38.6193 155.743 38.6193C158.087 38.6193 160.022 36.6611 160.022 34.295Z" fill="url(#paint7_linear_108_1247)"/>
<path d="M193.983 33.5063V42.5084H189.323V33.6423C189.323 31.0858 187.987 29.9979 186.352 29.9979C184.389 29.9707 183.108 31.3577 183.108 34.431V42.5084H178.529V33.7238C178.529 31.113 177.194 29.9979 175.64 29.9979C173.977 29.9979 172.287 30.9226 172.287 33.8598V42.5084H167.681V26.0816H172.287V29.2908C172.642 26.8703 175.068 25.6736 176.948 25.6736C179.374 25.6736 181.255 26.8431 182.236 28.91C183.435 26.5167 185.997 25.6736 187.742 25.6736C191.857 25.6464 193.983 28.5837 193.983 33.5063Z" fill="url(#paint8_linear_108_1247)"/>
<path d="M209.002 26.0816H213.608V42.5084H209.002V40.1423C207.911 41.8285 205.786 42.9163 203.578 42.9163C199.026 42.9163 195.646 39.408 195.646 34.295C195.646 29.2092 198.971 25.6465 203.687 25.6465C205.813 25.6465 207.911 26.5712 209.002 28.2573V26.0816ZM208.865 34.295C208.865 31.7929 206.848 29.9435 204.559 29.9435C202.16 29.9435 200.361 31.9017 200.361 34.295C200.361 36.5795 202.16 38.6193 204.586 38.6193C206.93 38.6193 208.865 36.6611 208.865 34.295Z" fill="url(#paint9_linear_108_1247)"/>
<path d="M233.287 18.2762C240.265 18.2762 244.326 23.5524 244.326 30.4331C244.326 37.2867 240.265 42.4812 233.287 42.4812H223.775V18.2762H233.287ZM233.287 38.157C237.348 38.157 239.42 34.567 239.42 30.4331C239.42 26.272 237.348 22.6005 233.287 22.6005H228.681V38.1842H233.287V38.157Z" fill="url(#paint10_linear_108_1247)"/>
<path d="M262.561 35.7908H250.186C250.677 37.7218 252.23 38.8369 254.411 38.8369C256.101 38.8369 257.736 38.0754 258.745 36.9059L261.416 39.6256C259.862 41.6925 257 42.9436 254.111 42.9436C249.041 42.9436 245.335 39.3808 245.335 34.3222C245.335 29.0189 249.396 25.6737 254.084 25.6737C258.799 25.6737 262.642 29.0189 262.642 34.0503C262.67 34.4854 262.615 35.0293 262.561 35.7908ZM258.009 32.7992C257.872 30.8682 256.292 29.6444 254.193 29.6444C252.285 29.6444 250.677 30.5963 250.186 32.7992H258.009Z" fill="url(#paint11_linear_108_1247)"/>
<path d="M280.522 33.5063V42.5084H275.916V33.7511C275.916 31.1946 274.363 30.0251 272.782 30.0251C271.119 30.0251 269.075 30.8954 269.075 33.8871V42.5084H264.468V26.0816H269.075V28.8557C269.783 26.6527 272.373 25.6465 274.008 25.6465C278.287 25.6465 280.55 28.5837 280.522 33.5063Z" fill="url(#paint12_linear_108_1247)"/>
<path d="M292.679 26.0817V29.6716H289.19V42.5085H284.556V29.6716H281.558V26.0817H284.556V20.0984H289.163V26.0817H292.679Z" fill="url(#paint13_linear_108_1247)"/>
<path d="M305.871 26.0816H310.477V42.5084H305.871V40.1423C304.781 41.8285 302.655 42.9163 300.447 42.9163C295.895 42.9163 292.515 39.408 292.515 34.295C292.515 29.2092 295.841 25.6465 300.556 25.6465C302.682 25.6465 304.781 26.5712 305.871 28.2573V26.0816ZM305.735 34.295C305.735 31.7929 303.718 29.9435 301.428 29.9435C299.03 29.9435 297.231 31.9017 297.231 34.295C297.231 36.5795 299.03 38.6193 301.455 38.6193C303.799 38.6193 305.735 36.6611 305.735 34.295Z" fill="url(#paint14_linear_108_1247)"/>
<path d="M313.394 42.4812V17.1339H318V42.4812H313.394Z" fill="url(#paint15_linear_108_1247)"/>
</g>
<defs>
<linearGradient id="paint0_linear_108_1247" x1="52.7041" y1="51.9734" x2="-9.80443" y2="18.0681" gradientUnits="userSpaceOnUse">
<stop stop-color="#3A3A3A"/>
<stop offset="1" stop-color="#0F0F0F"/>
</linearGradient>
<linearGradient id="paint1_linear_108_1247" x1="51.617" y1="45.6908" x2="21.8923" y2="29.445" gradientUnits="userSpaceOnUse">
<stop stop-color="#3A3A3A"/>
<stop offset="1" stop-color="#0F0F0F"/>
</linearGradient>
<linearGradient id="paint2_linear_108_1247" x1="80.2808" y1="42.5084" x2="55.8759" y2="32.5042" gradientUnits="userSpaceOnUse">
<stop stop-color="#3A3A3A"/>
<stop offset="1" stop-color="#0F0F0F"/>
</linearGradient>
<linearGradient id="paint3_linear_108_1247" x1="95.2353" y1="42.9163" x2="74.2143" y2="31.2571" gradientUnits="userSpaceOnUse">
<stop stop-color="#3A3A3A"/>
<stop offset="1" stop-color="#0F0F0F"/>
</linearGradient>
<linearGradient id="paint4_linear_108_1247" x1="113.23" y1="42.4812" x2="90.7926" y2="34.7347" gradientUnits="userSpaceOnUse">
<stop stop-color="#3A3A3A"/>
<stop offset="1" stop-color="#0F0F0F"/>
</linearGradient>
<linearGradient id="paint5_linear_108_1247" x1="129.283" y1="42.9436" x2="109.557" y2="32.758" gradientUnits="userSpaceOnUse">
<stop stop-color="#3A3A3A"/>
<stop offset="1" stop-color="#0F0F0F"/>
</linearGradient>
<linearGradient id="paint6_linear_108_1247" x1="146.937" y1="50.477" x2="123.072" y2="41.1236" gradientUnits="userSpaceOnUse">
<stop stop-color="#3A3A3A"/>
<stop offset="1" stop-color="#0F0F0F"/>
</linearGradient>
<linearGradient id="paint7_linear_108_1247" x1="165.043" y1="42.9163" x2="143.836" y2="30.9542" gradientUnits="userSpaceOnUse">
<stop stop-color="#3A3A3A"/>
<stop offset="1" stop-color="#0F0F0F"/>
</linearGradient>
<linearGradient id="paint8_linear_108_1247" x1="194.351" y1="42.5084" x2="170.524" y2="22.3187" gradientUnits="userSpaceOnUse">
<stop stop-color="#3A3A3A"/>
<stop offset="1" stop-color="#0F0F0F"/>
</linearGradient>
<linearGradient id="paint9_linear_108_1247" x1="213.859" y1="42.9163" x2="192.652" y2="30.9543" gradientUnits="userSpaceOnUse">
<stop stop-color="#3A3A3A"/>
<stop offset="1" stop-color="#0F0F0F"/>
</linearGradient>
<linearGradient id="paint10_linear_108_1247" x1="244.613" y1="42.4812" x2="218.224" y2="30.33" gradientUnits="userSpaceOnUse">
<stop stop-color="#3A3A3A"/>
<stop offset="1" stop-color="#0F0F0F"/>
</linearGradient>
<linearGradient id="paint11_linear_108_1247" x1="262.892" y1="42.9436" x2="242.093" y2="31.6345" gradientUnits="userSpaceOnUse">
<stop stop-color="#3A3A3A"/>
<stop offset="1" stop-color="#0F0F0F"/>
</linearGradient>
<linearGradient id="paint12_linear_108_1247" x1="280.747" y1="42.5084" x2="261.021" y2="32.3228" gradientUnits="userSpaceOnUse">
<stop stop-color="#3A3A3A"/>
<stop offset="1" stop-color="#0F0F0F"/>
</linearGradient>
<linearGradient id="paint13_linear_108_1247" x1="292.834" y1="42.5085" x2="276.696" y2="38.1653" gradientUnits="userSpaceOnUse">
<stop stop-color="#3A3A3A"/>
<stop offset="1" stop-color="#0F0F0F"/>
</linearGradient>
<linearGradient id="paint14_linear_108_1247" x1="310.728" y1="42.9163" x2="289.521" y2="30.9542" gradientUnits="userSpaceOnUse">
<stop stop-color="#3A3A3A"/>
<stop offset="1" stop-color="#0F0F0F"/>
</linearGradient>
<linearGradient id="paint15_linear_108_1247" x1="318.064" y1="42.4812" x2="310.964" y2="41.7815" gradientUnits="userSpaceOnUse">
<stop stop-color="#3A3A3A"/>
<stop offset="1" stop-color="#0F0F0F"/>
</linearGradient>
<clipPath id="clip0_108_1247">
<rect width="318" height="52" fill="white"/>
</clipPath>
</defs>
</svg>
