<svg width="168" height="48" viewBox="0 0 168 48" fill="none" xmlns="http://www.w3.org/2000/svg">
<g clip-path="url(#clip0_27_1899)">
<path d="M165.371 23.3607C164.134 23.7481 162.936 24.3293 161.699 24.4842C156.558 25.1816 151.378 25.7627 146.198 26.3438C144.342 26.5375 142.487 26.5375 140.631 26.6925C139.82 26.7699 138.969 26.8474 138.157 27.0799C134.91 27.9709 131.702 28.9007 128.455 29.7917C128.107 29.908 127.72 29.9854 127.372 30.0629C124.898 30.6053 124.628 30.4116 123.855 27.9322C123.584 27.0799 123.236 26.9249 122.424 27.4285C120.491 28.552 118.597 29.7143 116.626 30.799C115.814 31.2639 115.002 31.69 114.113 31.9612C113.263 32.2324 112.567 31.6513 112.722 30.799C112.838 30.1791 113.147 29.598 113.34 28.9782C113.456 28.6295 113.533 28.2808 113.611 27.9322C113.185 28.0484 112.722 28.0484 112.374 28.2421C111.369 28.9394 110.479 29.753 109.474 30.4116C107.928 31.4189 106.343 32.4261 104.681 33.2397C103.405 33.8595 103.019 33.5883 102.439 32.1549C101.859 30.7603 101.82 30.7215 100.467 31.4963C98.5347 32.5811 96.5632 33.6658 94.6691 34.8281C92.4657 36.2227 89.9917 36.6876 87.5177 37.075C86.0874 37.3075 85.1596 36.5714 85.0437 35.0992C84.9664 33.937 85.2369 32.6973 85.3916 31.5351C85.4689 30.799 85.1596 30.4891 84.4252 30.7215C83.7293 30.954 82.9949 31.1864 82.3377 31.4963C79.5545 32.8135 76.8099 34.2082 74.0266 35.5254C73.2149 35.9128 72.2871 36.184 71.398 36.3389C69.9677 36.5714 68.8467 35.9128 68.0736 34.7506C67.3778 33.7046 66.5273 33.5496 65.4449 33.9758C63.7827 34.5956 62.1205 35.2155 60.4583 35.7578C59.5692 36.029 58.6801 36.3389 57.791 36.4164C56.2834 36.5327 55.6263 35.8353 55.3943 34.3244C55.2784 33.5883 56.0901 32.4261 55.0464 32.1549C54.4666 32 53.6161 32.8135 52.843 33.1622C51.9153 33.5883 51.0262 34.1307 50.0598 34.4406C49.248 34.7118 48.6295 34.092 48.5908 33.2397C48.5908 33.1622 48.5908 33.046 48.5908 32.9685C48.6681 32.2324 48.7454 31.5351 48.8228 30.799C47.7404 30.799 47.3538 31.7675 46.7353 32.3874C45.6529 33.4334 44.6865 34.5569 43.6815 35.6416C43.3722 35.9903 43.1016 36.3777 42.7537 36.6876C42.0966 37.1912 41.4781 37.8498 40.5117 37.5012C40.0091 37.3075 40.2411 36.3777 40.9369 35.2542C41.6714 34.0532 43.063 33.2009 42.9857 31.5351C41.7873 32.3874 40.589 33.2009 39.3906 34.0532C36.9553 35.7578 34.52 37.5012 32.046 39.1283C31.1955 39.6707 30.1905 40.0581 29.224 40.2905C27.6391 40.6779 26.5954 39.9419 26.5568 38.3147C26.5181 37.23 26.8274 36.1452 27.098 35.0605C27.2139 34.5181 27.5618 34.0532 27.7938 33.5109C28.0257 32.8523 27.9097 32.4261 27.098 32.4261C26.866 32.4261 26.6727 32.1937 26.4408 32.0774C26.5954 31.8837 26.7114 31.6126 26.9047 31.4963C29.0308 30.1791 31.1955 28.9007 33.3216 27.5835C35.7569 26.0726 37.6511 26.9636 38.0763 29.8305C38.1536 30.3728 38.115 30.954 38.1536 31.4963C38.1923 32.2712 38.6175 32.5036 39.1974 32.0774C40.8982 30.7603 42.5604 29.4431 44.2227 28.0871C44.5706 27.7772 44.8798 27.4285 45.2664 27.1573C46.1555 26.4988 46.658 26.615 47.2765 27.9709C47.5858 28.6295 47.8564 28.8232 48.4749 28.3583C49.4026 27.7385 50.3304 27.1186 51.3354 26.615C51.606 26.46 52.2245 26.46 52.3791 26.615C52.6111 26.9249 52.7657 27.4673 52.6884 27.8547C52.4951 28.6682 52.1085 29.4431 51.8379 30.2179C51.7606 30.5278 51.7606 31.1864 51.8766 31.2251C52.2632 31.3414 52.8044 31.4189 53.1136 31.2251C54.8145 30.2566 56.4767 29.2494 58.1389 28.1646C58.9893 27.6222 59.7625 26.8862 60.6129 26.3438C60.8835 26.1888 61.5407 26.1501 61.618 26.3051C61.8499 26.615 62.0045 27.2348 61.8113 27.506C61.4247 28.2421 60.8449 28.8619 60.3423 29.5205C59.5692 30.5666 58.7574 31.5738 58.0616 32.6586C57.6364 33.3172 58.1776 34.0532 58.9507 33.8983C60.3037 33.5883 61.6566 33.2009 63.0096 32.8523C63.4735 32.736 63.86 32.4261 64.3239 32.3874C66.4114 32.1162 67.8803 31.0314 68.924 29.1719C69.6971 27.8159 71.0888 27.1573 72.5577 26.8087C73.6014 26.5762 74.6065 26.9249 74.993 27.6997C75.4569 28.5908 75.3796 29.4818 74.7611 30.3341C73.988 31.3801 72.8669 31.7675 71.7846 32.3099C71.5526 32.4261 71.4753 32.891 71.3207 33.1622C71.6299 33.3172 71.9778 33.5883 72.2484 33.5883C72.9056 33.5109 73.5241 33.3559 74.1426 33.1235C78.1242 31.5738 82.1058 29.9854 86.0874 28.3971C86.358 28.2808 86.6286 28.1646 86.8219 27.9709C88.7547 26.0726 91.19 24.9104 93.3548 23.2833C94.0892 22.7409 94.901 22.2373 95.7514 21.8886C97.375 21.2687 98.6893 22.0048 99.1532 23.7094C99.6557 25.5302 99.2305 27.2348 98.3027 28.8232C97.8389 29.6368 97.3363 30.4116 96.8725 31.2251C96.7952 31.3414 96.8338 31.6513 96.9498 31.7288C97.0658 31.8063 97.3363 31.8063 97.4523 31.7288C98.8053 30.954 100.197 30.1404 101.55 29.3268C102.71 28.6295 103.521 27.661 104.217 26.4988C105.3 24.7167 106.614 23.167 108.508 22.1985C109.011 21.9661 109.513 21.7336 110.054 21.6174C110.711 21.5012 111.369 22.3147 111.021 22.8958C110.673 23.5157 110.209 24.1356 109.668 24.6392C108.74 25.5302 107.658 26.3051 106.73 27.2348C106.15 27.8159 105.647 28.5133 105.222 29.2106C105.068 29.4818 105.068 29.9854 105.261 30.2566C105.377 30.4116 105.957 30.4503 106.227 30.2954C107.232 29.7917 108.237 29.2881 109.126 28.6295C111.214 27.2348 113.224 25.7239 115.312 24.2905C115.698 24.0193 116.046 23.6707 116.471 23.5544C117.051 23.3995 117.863 23.1283 118.288 23.3607C118.945 23.7481 118.559 24.523 118.327 25.1428C118.288 25.2203 118.249 25.2978 118.211 25.414C117.979 26.3438 116.858 27.0411 117.438 28.1646C118.404 27.8159 119.37 27.5448 120.26 27.1186C121.844 26.3438 123.391 25.4527 124.976 24.7167C126.444 24.0193 127.256 24.6392 126.908 26.1113C126.87 26.3051 126.831 26.4988 126.831 26.6537C126.87 27.506 127.218 27.9322 128.029 27.7772C130.04 27.3898 132.011 26.9249 134.021 26.4213C134.64 26.2663 135.219 25.9564 135.838 25.7239C136.843 25.3753 137.693 24.9491 137.655 23.6319C137.655 22.7796 138.351 22.3147 139.124 22.1598C139.936 21.9661 140.786 21.8886 141.598 21.8498C142.41 21.7724 143.105 22.0435 143.415 22.8571C143.84 23.9806 144.729 24.0581 145.695 23.9806C149.406 23.7482 153.117 23.4382 156.828 23.2058C159.225 23.0508 161.66 23.0508 164.057 23.0121C164.482 23.0121 164.907 23.2833 165.371 23.4382V23.3607ZM95.1329 24.6004C94.6691 24.9491 93.664 25.5302 92.9295 26.3051C92.1178 27.1574 91.5379 28.2421 90.8034 29.2106C90.069 30.1404 89.7597 31.1477 89.9917 32.3486C90.1849 33.3559 90.9194 33.7046 91.8472 33.2009C94.1279 31.9612 95.8288 30.1404 96.9498 27.8159C97.259 27.1574 97.3363 26.3825 97.3363 25.6465C97.4137 24.6779 96.6019 24.1743 95.1329 24.6004ZM30.8863 37.2687C31.6207 36.8038 32.9737 36.1065 34.0947 35.1767C35.3317 34.1307 36.0275 32.6586 36.0662 31.0314C36.0662 30.644 35.8343 30.0629 35.5637 29.8692C35.2544 29.6755 34.5973 29.6755 34.288 29.908C32.3552 31.3414 30.6157 33.0072 29.456 35.2155C29.2627 35.6029 29.1467 36.1065 29.1081 36.5327C28.9921 37.2687 29.572 37.6949 30.8863 37.2687Z" fill="url(#paint0_linear_27_1899)"/>
<path d="M24.0436 3.25423C19.0183 5.19128 14.8435 7.16706 11.4417 10.5375C7.0349 14.8765 5.48865 19.9128 7.15087 26.0726C8.11727 29.5981 10.3207 32.3099 12.2148 35.2542C12.7947 36.184 13.7611 36.5714 14.9208 36.029C15.0367 35.9903 15.3073 36.0678 15.3846 36.184C15.4233 36.2615 15.346 36.5714 15.23 36.6102C14.225 37.1913 14.3796 37.9661 14.8048 38.7797C15.1527 39.4383 15.5779 40.0581 15.9258 40.7167C17.3561 43.3123 16.8536 45.0944 14.2636 46.5666C11.9056 47.9225 9.31562 48.155 6.68699 47.845C4.87015 47.6126 2.976 47.4964 1.31378 46.5278C-0.155159 45.6368 -0.464409 44.707 0.57931 43.3123C1.23647 42.4213 2.00959 41.569 2.93734 40.9879C4.8315 39.8257 6.84162 38.8571 8.85174 37.8499C10.5526 36.9976 10.7459 36.5327 9.81815 34.8668C8.46518 32.4261 6.95759 30.0629 5.83656 27.506C4.01971 23.3995 4.01971 19.2155 5.91387 15.0702C7.92399 10.8475 11.1711 7.82566 15.0754 5.5012C18.5158 3.40919 21.9949 1.47215 25.9765 0.542366C28.2572 -6.78888e-06 30.5765 -0.232452 32.8573 0.309921C35.1766 0.891034 36.9162 2.092 37.5733 4.57142C37.9599 6.04358 37.8053 7.43825 36.7615 8.48425C35.6019 9.68522 34.2875 10.77 32.9346 11.6998C31.6203 12.5521 30.3833 12.1646 29.6488 10.77C29.2622 10.0726 29.1849 9.18159 29.069 8.36803C29.0303 8.17433 29.3009 7.82566 29.4942 7.74818C29.6875 7.6707 30.0354 7.74818 30.2673 7.8644C30.4992 7.98062 30.6539 8.25181 30.8858 8.44551C32.3934 9.68522 32.7413 9.68522 34.1716 8.32929C34.5195 8.01936 34.8287 7.6707 35.0993 7.28329C35.9111 6.12106 35.7951 4.95883 34.6355 4.06779C33.0505 2.86682 31.2337 2.05326 29.1849 2.28571C27.1748 2.55689 25.2806 3.02179 24.0436 3.25423ZM12.0602 45.5593C12.5627 45.3656 12.9106 45.2494 13.2199 45.0944C14.6115 44.3971 14.9594 43.5448 14.3023 42.1114C13.8771 41.1816 13.2972 40.3293 12.7174 39.477C12.1762 38.7022 11.4417 38.5085 10.514 38.7409C7.6534 39.5157 5.37268 41.2978 3.09196 43.0412C2.20287 43.6998 2.51212 44.7458 3.67181 45.1719C6.45506 46.2954 9.31562 46.1404 12.0602 45.5593Z" fill="url(#paint1_linear_27_1899)"/>
<path d="M19.4827 34.3631C19.9079 34.2469 20.2558 34.1694 20.6424 34.0919C20.8357 34.0532 21.0676 34.0919 21.2996 34.0919C21.1449 34.1694 20.9903 34.2856 20.8357 34.3631C19.9852 34.7118 19.0962 35.0217 18.2457 35.3316C18.0911 35.3704 17.8978 35.3316 17.7045 35.3316C17.8205 35.2154 17.8978 35.0217 18.0524 34.983C18.4777 34.7505 19.0188 34.5568 19.4827 34.3631Z" fill="url(#paint2_linear_27_1899)"/>
<path d="M165.333 23.4382C166.183 23.2445 166.956 22.4696 167.884 23.0508C168.271 23.2832 167.498 23.5544 166.454 23.4769C166.106 23.4382 165.719 23.4382 165.371 23.3994L165.333 23.4382Z" fill="url(#paint3_linear_27_1899)"/>
</g>
<defs>
<linearGradient id="paint0_linear_27_1899" x1="167.314" y1="40.3919" x2="154.66" y2="-10.362" gradientUnits="userSpaceOnUse">
<stop stop-color="#3A3A3A"/>
<stop offset="1" stop-color="#0F0F0F"/>
</linearGradient>
<linearGradient id="paint1_linear_27_1899" x1="38.2954" y1="47.9667" x2="-11.4497" y2="26.7043" gradientUnits="userSpaceOnUse">
<stop stop-color="#3A3A3A"/>
<stop offset="1" stop-color="#0F0F0F"/>
</linearGradient>
<linearGradient id="paint2_linear_27_1899" x1="21.3498" y1="35.3489" x2="19.6754" y2="32.7867" gradientUnits="userSpaceOnUse">
<stop stop-color="#3A3A3A"/>
<stop offset="1" stop-color="#0F0F0F"/>
</linearGradient>
<linearGradient id="paint3_linear_27_1899" x1="168.022" y1="23.4904" x2="167.319" y2="21.9382" gradientUnits="userSpaceOnUse">
<stop stop-color="#3A3A3A"/>
<stop offset="1" stop-color="#0F0F0F"/>
</linearGradient>
<clipPath id="clip0_27_1899">
<rect width="168" height="48" fill="white"/>
</clipPath>
</defs>
</svg>
